<?xml version="1.0" encoding="utf-8"?>
<svg width="500px" height="500px" viewBox="0 0 500 500" version="1.1" xmlns:xlink="http://www.w3.org/1999/xlink" xmlns="http://www.w3.org/2000/svg">
  <defs>
    <linearGradient gradientUnits="userSpaceOnUse" x1="0" y1="0" x2="459.99997" y2="447.48245" id="gradient_1">
      <stop offset="0%" stop-color="#798BC7" />
      <stop offset="100%" stop-color="#54A954" />
    </linearGradient>
    <filter filterUnits="userSpaceOnUse" color-interpolation-filters="sRGB" id="filter_1">
      <feFlood flood-opacity="0" result="BackgroundImageFix" />
      <feColorMatrix in="SourceAlpha" type="matrix" values="0 0 0 0 0 0 0 0 0 0 0 0 0 0 0 0 0 0 127 0" />
      <feOffset dx="0" dy="2" />
      <feGaussianBlur stdDeviation="3" />
      <feColorMatrix type="matrix" values="0 0 0 0 0.39215687 0 0 0 0 0.39215687 0 0 0 0 0.39215687 0 0 0 0.49803922 0" />
      <feBlend mode="normal" in2="BackgroundImageFix" result="effect0_dropShadow" />
      <feBlend mode="normal" in="SourceGraphic" in2="effect0_dropShadow" result="shape" />
    </filter>
    <path d="M0 230C0 102.974 102.974 0 230 0C357.025 0 460 102.974 460 230C460 357.025 357.025 460 230 460C102.974 460 0 357.025 0 230Z" id="path_1" />
    <rect width="500" height="500" id="artboard_1" />
    <clipPath id="clip_1">
      <use xlink:href="#artboard_1" clip-rule="evenodd" />
    </clipPath>
    <clipPath id="mask_1">
      <use xlink:href="#path_1" />
    </clipPath>
  </defs>
  <g id="Логотип-круглый" clip-path="url(#clip_1)">
    <g id="Прямоугольник-Вычитание-Вычитание-Маска" transform="translate(20 20)" artboard="509c55dd-279c-4a65-bb6f-72986c9c35ed">
      <path d="M0 230C0 102.974 102.974 0 230 0C357.025 0 460 102.974 460 230C460 357.025 357.025 460 230 460C102.974 460 0 357.025 0 230Z" id="Маска" fill="url(#gradient_1)" fill-rule="evenodd" stroke="none" filter="url(#filter_1)" />
      <g clip-path="url(#mask_1)">
        <path d="M286.818 516L386 516L386 0.0110474L297.807 0.0110474L127.698 188.984L286.818 188.984L286.818 516Z" id="Прямоугольник-Вычитание-Вычитание" fill="#9FEEBA" fill-rule="evenodd" stroke="none" />
      </g>
    </g>
  </g>
</svg>